<?xml version="1.0" encoding="iso-8859-1"?>
<!-- Generator: Adobe Illustrator 19.0.0, SVG Export Plug-In . SVG Version: 6.00 Build 0)  -->
<svg version="1.1" id="Layer_1" xmlns="http://www.w3.org/2000/svg" xmlns:xlink="http://www.w3.org/1999/xlink" x="0px" y="0px"
	 viewBox="0 0 495 495" style="enable-background:new 0 0 495 495;" xml:space="preserve">
<g>
	<polygon style="fill:#46F8FF;" points="286.2,332.135 286.38,332.135 465,495 465,169.46 	"/>
	<polygon style="fill:#9BFBFF;" points="465,169.46 347.037,169.46 247.5,278.528 147.963,169.46 30,169.46 247.5,367.23 	"/>
	<polygon style="fill:#00E7F0;" points="286.2,332.135 247.5,367.23 208.71,332.135 30,495 465,495 286.38,332.135 	"/>
	<polygon style="fill:#46F8FF;" points="30,169.46 30,495 208.71,332.135 	"/>
	<polygon style="fill:#2488FF;" points="247.5,0 163.07,0 163.07,114.43 97.741,114.43 147.963,169.46 247.5,278.528 	"/>
	<polygon style="fill:#005ECE;" points="347.037,169.46 397.259,114.43 331.93,114.43 331.93,0 247.5,0 247.5,278.528 	"/>
</g>
<g>
</g>
<g>
</g>
<g>
</g>
<g>
</g>
<g>
</g>
<g>
</g>
<g>
</g>
<g>
</g>
<g>
</g>
<g>
</g>
<g>
</g>
<g>
</g>
<g>
</g>
<g>
</g>
<g>
</g>
</svg>
