<?xml version="1.0" encoding="iso-8859-1"?>
<!-- Generator: Adobe Illustrator 19.0.0, SVG Export Plug-In . SVG Version: 6.00 Build 0)  -->
<svg version="1.1" id="Layer_1" xmlns="http://www.w3.org/2000/svg" xmlns:xlink="http://www.w3.org/1999/xlink" x="0px" y="0px"
	 viewBox="0 0 512 512" style="enable-background:new 0 0 512 512;" xml:space="preserve">
<path style="fill:#16A5D9;" d="M464.419,43.843l-4.12-4.12C424.314,3.738,371.875-9.014,323.407,6.484
	c-51.476,16.46-88.15,61.834-93.453,115.618c-0.07,0.702-0.092,1.397-0.076,2.102l1.347,59.299L23.201,391.528
	c-20.419,20.419-20.416,53.646,0.003,74.066l15.341,15.339c16.942,16.942,42.704,19.829,62.652,8.651l33.258,20.088
	c2.804,1.694,5.741,2.328,8.849,2.328c4.525,0,8.813-1.943,12.186-5.317l14.779-14.779c4.197-4.197,6.178-10.049,4.934-15.853
	l-3.545-17.275l2.763,2.763c6.832,6.832,17.81,6.754,24.642-0.079l34.412-34.412c3.824-3.824,5.547-9.321,4.869-14.686
	l-6.581-51.236l88.542-88.542l59.472,1.506c0.709,0.021,1.493,0.07,2.195,0.002c53.783-5.302,99.185-41.918,115.645-93.396
	C513.119,132.223,500.405,79.828,464.419,43.843z M420.213,187.698c-14.304,14.306-33.094,21.457-51.883,21.457
	c-18.791,0-37.581-7.152-51.884-21.457c-13.859-13.858-21.492-32.284-21.492-51.883s7.633-38.027,21.492-51.884
	c28.606-28.609,75.16-28.611,103.769,0c13.859,13.859,21.492,32.285,21.492,51.884S434.071,173.841,420.213,187.698z"/>
<path style="fill:#4AD0FF;" d="M315.798,187.029c-13.704-13.953-20.93-31.929-20.93-51.298c0-19.6,7.591-38.068,21.45-51.926
	c28.099-28.1,74.004-28.077,102.201-1.491l41.779-42.591C424.314,3.738,371.875-9.014,323.407,6.484
	c-51.476,16.46-88.15,61.834-93.453,115.618c-0.07,0.702-0.092,1.397-0.076,2.102l1.347,59.299L23.201,391.528
	c-20.419,20.419-20.416,53.646,0.003,74.066l9.761,9.759L315.798,187.029z"/>
<g>
</g>
<g>
</g>
<g>
</g>
<g>
</g>
<g>
</g>
<g>
</g>
<g>
</g>
<g>
</g>
<g>
</g>
<g>
</g>
<g>
</g>
<g>
</g>
<g>
</g>
<g>
</g>
<g>
</g>
</svg>
